<?xml version="1.0" encoding="utf-8"?>
<!-- Generator: Adobe Illustrator 24.0.2, SVG Export Plug-In . SVG Version: 6.00 Build 0)  -->
<svg version="1.1" id="Ebene_1" xmlns="http://www.w3.org/2000/svg" xmlns:xlink="http://www.w3.org/1999/xlink" x="0px" y="0px"
	 viewBox="0 0 178.5 59.9" style="enable-background:new 0 0 178.5 59.9;" xml:space="preserve">
<style type="text/css">
	.st0{fill:#006794;}
	.st1{fill:#57585A;}
</style>
<g>
	<g>
		<path class="st0" d="M29.3,36.3c0,3.9,2.6,7.5,6.8,7.5c3.3,0,5.1-1.7,6.7-4.4l3.7,2.1c-2.1,3.9-6.1,6.2-10.4,6.2
			c-6.9,0-11.1-5.2-11.1-11.8c0-6.9,3.7-12.1,11-12.1c7.2,0,10.5,5.3,10.5,12v0.7H29.3z M42.1,33c-0.5-3.4-2.7-5.6-6.2-5.6
			c-3.4,0-5.9,2.4-6.4,5.6H42.1z"/>
		<path class="st1" d="M86.3,28.5V30c0,10-7,17.6-17.2,17.6c-10.2,0-18.3-8.8-18.3-18.8c0-10.4,8.4-19,18.8-19
			c5.6,0,11.2,2.6,14.8,7l-3.2,3c-2.6-3.6-7-5.9-11.4-5.9c-8.1,0-14.5,6.6-14.5,14.7c0,7.6,6.3,14.8,14.1,14.8
			c5.6,0,11.7-4.9,11.9-10.8h-9.4v-4.1H86.3z"/>
		<path class="st1" d="M94.5,28h0.1c1.1-2.6,3.3-4.3,6.2-4.3c1.3,0,2.5,0.4,3.6,1.1l-2,3.9c-0.8-0.7-1.6-0.9-2.6-0.9
			c-4.7,0-5.2,4.3-5.2,8v11.1h-4.3V24.3h4.3V28z"/>
		<path class="st1" d="M128.3,35.6c0,6.8-5.3,12-12,12c-6.7,0-12-5.2-12-12s5.3-12,12-12C123,23.6,128.3,28.8,128.3,35.6z
			 M108.6,35.6c0,4.2,3.4,7.8,7.7,7.8c4.3,0,7.7-3.6,7.7-7.8c0-4.3-3.4-7.8-7.7-7.8C112,27.8,108.6,31.3,108.6,35.6z"/>
		<path class="st1" d="M135.9,24.3v12.5c0,3.6,0.9,6.8,5.2,6.8c4.3,0,5.2-3.2,5.2-6.8V24.3h4.3v13c0,6.2-2.9,10.4-9.5,10.4
			c-6.6,0-9.5-4.2-9.5-10.4v-13H135.9z"/>
		<path class="st1" d="M159.9,28.1L159.9,28.1c1.9-2.7,4.6-4.4,7.9-4.4c6.5,0,10.6,5.6,10.6,11.8c0,6.5-3.9,12.2-10.8,12.2
			c-3.2,0-5.9-1.7-7.7-4.3h-0.1v16.4h-4.3V24.3h4.3V28.1z M174.2,35.6c0-4.4-2.6-8.1-7.3-8.1c-4.5,0-7.1,3.9-7.1,8.1
			c0,4.2,2.6,8.2,7.1,8.2C171.6,43.8,174.2,40,174.2,35.6z"/>
	</g>
</g>
<g>
	<path class="st0" d="M18.4,59.9c0,0-2.2-1-3.6-1.9c-1.5-0.9-5.2-3.8-6.4-5.3c-1.3-1.5-4.4-5.4-5.6-8.6c-1.3-3.2-1.4-3.8-1.6-4.4
		C1,39.2,0.2,36,0.1,34c-0.1-2-0.8-10.1,4.2-18.5C9.3,7,17,3.3,18.5,2.7C20,2,23.1,1,24,0.8C24.9,0.6,27.9,0,29.4,0
		c1.5,0,6.6-0.1,9.4,0.8c2.9,0.9,5.2,1.6,7.8,3.1C49.1,5.4,50,6.2,50,6.2l-2.6,4.4c0,0-1.9-1.4-3.4-2.2c-1.6-0.8-4.7-2.3-8-2.8
		c-3.2-0.4-7-0.5-10.3,0.4C22.4,6.9,14.5,9.6,9.3,18.4c-5.2,8.8-3.2,17.8-2.5,20.2c0.7,2.4,2.6,6.6,4.6,8.9c2,2.2,3.8,4.2,6.2,5.7
		c2.4,1.5,3.6,1.9,3.6,1.9L18.4,59.9L18.4,59.9z"/>
</g>
</svg>
